<svg width="598" height="613" viewBox="0 0 598 613" fill="none" xmlns="http://www.w3.org/2000/svg">
<path d="M-1 76.5C10.3333 117.833 52.5 198.5 115 195.5C196.351 191.595 236.5 283.5 178 354" stroke="#591893" stroke-width="5" stroke-linecap="round"/>
<circle cx="164" cy="372" r="24" fill="#591893"/>
<path d="M-2 604C49 625.5 235.626 587.463 131.5 504C3 401 85.5 301.5 149.5 370.5" stroke="#591893" stroke-width="5" stroke-linecap="round"/>
<path d="M595.5 2.5C483.833 6.5 277.4 74.3 345 313.5C412.6 552.7 254.833 456.5 167.5 378.5" stroke="#591893" stroke-width="5" stroke-linecap="round"/>
<path d="M191.578 393.552C196.768 386.91 199.387 378.617 198.954 370.199C198.52 361.78 195.062 353.801 189.216 347.728" stroke="#591893" stroke-width="3" stroke-linecap="round"/>
<path d="M135.5 352C140.221 344.679 146.586 340.415 155.004 338.176C163.423 335.937 172.373 336.918 180.107 340.926" stroke="#591893" stroke-width="3" stroke-linecap="round" stroke-dasharray="20 20"/>
<path d="M181.924 402.062C175.978 405.607 169.114 407.31 162.201 406.954C155.288 406.598 148.636 404.2 143.085 400.064C137.535 395.927 133.336 390.238 131.019 383.714C128.702 377.191 128.371 370.128 130.069 363.417" stroke="#591893" stroke-width="3" stroke-linecap="round"/>
</svg>
