<svg width="811" height="747" viewBox="0 0 811 747" fill="none" xmlns="http://www.w3.org/2000/svg">
<circle cx="489.5" cy="479.5" r="52.5" fill="#591893"/>
<path d="M592.849 485.097C591.896 502.694 586.465 519.756 577.072 534.667C567.679 549.577 554.634 561.843 539.174 570.301C523.713 578.759 506.349 583.129 488.727 582.997C471.105 582.866 453.808 578.237 438.476 569.549" stroke="#591893" stroke-width="10" stroke-linecap="round"/>
<path d="M408.053 543.364C398.845 531.621 392.285 518.025 388.823 503.509C385.361 488.993 385.08 473.9 387.997 459.265C390.915 444.63 396.963 430.799 405.726 418.72C414.49 406.641 425.762 396.6 438.769 389.285C451.777 381.971 466.212 377.556 481.086 376.343C495.96 375.129 510.92 377.147 524.941 382.257C538.962 387.367 551.712 395.449 562.317 405.948C572.922 416.447 579.131 430.683 584.382 444.652" stroke="#591893" stroke-width="10" stroke-linecap="round" stroke-dasharray="50 35"/>
<path d="M24.5 749C-6.16669 662.333 -22.2 501.1 159 549.5C340.2 597.9 441.167 551.333 469 522" stroke="#591893" stroke-width="10" stroke-linecap="round"/>
<path d="M812 6.99997C725.667 -4.16669 445.872 74.6838 582 230.5C703 369 604.5 469 528 490.5" stroke="#591893" stroke-width="10" stroke-linecap="round"/>
</svg>
