<svg width="1442" height="1160" viewBox="0 0 1442 1160" fill="none" xmlns="http://www.w3.org/2000/svg">
<circle cx="1120.5" cy="479.5" r="52.5" fill="#591893"/>
<path d="M1223.85 485.097C1222.9 502.694 1217.47 519.756 1208.07 534.667C1198.68 549.577 1185.63 561.843 1170.17 570.301C1154.71 578.758 1137.35 583.129 1119.73 582.997C1102.1 582.866 1084.81 578.237 1069.48 569.549" stroke="#591893" stroke-width="10" stroke-linecap="round"/>
<path d="M1038.05 543.364C1028.84 531.621 1022.28 518.025 1018.82 503.509C1015.36 488.993 1015.08 473.9 1018 459.265C1020.91 444.63 1026.96 430.799 1035.73 418.72C1044.49 406.641 1055.76 396.6 1068.77 389.285C1081.78 381.971 1096.21 377.556 1111.09 376.343C1125.96 375.129 1140.92 377.147 1154.94 382.257C1168.96 387.367 1181.71 395.449 1192.32 405.948C1202.92 416.447 1209.13 430.683 1214.38 444.652" stroke="#591893" stroke-width="10" stroke-linecap="round" stroke-dasharray="50 35"/>
<path d="M654.5 749C623.833 662.333 607.8 501.1 789 549.5C970.2 597.9 1071.17 551.333 1099 522" stroke="#591893" stroke-width="10" stroke-linecap="round"/>
<path d="M1443 6.99994C1356.67 -4.16672 1076.87 74.6837 1213 230.5C1334 369 1235.5 469 1159 490.5" stroke="#591893" stroke-width="10" stroke-linecap="round"/>
<ellipse cx="655.5" cy="917.5" rx="225.5" ry="170.5" fill="#8F5BBD"/>
<ellipse cx="1003.5" cy="968.5" rx="241.5" ry="166.5" fill="#8F5BBD"/>
<ellipse cx="356" cy="1027" rx="289" ry="172" fill="#8F5BBD"/>
<ellipse cx="1314.5" cy="995.5" rx="202.5" ry="140.5" fill="#8F5BBD"/>
<ellipse cx="81.5" cy="1011" rx="292.5" ry="177" fill="#8F5BBD"/>
<rect x="-21" y="996" width="1496" height="283" fill="#8F5BBD"/>
</svg>
