<svg width="1442" height="694" viewBox="0 0 1442 694" fill="none" xmlns="http://www.w3.org/2000/svg">
<circle cx="1289.05" cy="231.526" r="25.2251" fill="#591893"/>
<path d="M1338.7 234.215C1338.24 242.67 1335.64 250.868 1331.12 258.033C1326.61 265.197 1320.34 271.09 1312.91 275.154C1305.48 279.218 1297.14 281.318 1288.67 281.254C1280.21 281.191 1271.9 278.967 1264.53 274.793" stroke="#591893" stroke-width="7" stroke-linecap="round"/>
<path d="M1249.43 262.212C1245.01 256.569 1241.86 250.037 1240.19 243.062C1238.53 236.087 1238.39 228.836 1239.8 221.804C1241.2 214.772 1244.1 208.126 1248.31 202.323C1252.52 196.519 1257.94 191.695 1264.19 188.18C1270.44 184.666 1277.38 182.544 1284.52 181.962C1291.67 181.379 1298.86 182.348 1305.59 184.803C1312.33 187.259 1318.46 191.142 1323.55 196.186C1328.65 201.231 1331.63 208.071 1334.15 214.783" stroke="#591893" stroke-width="7" stroke-linecap="round" stroke-dasharray="50 50"/>
<path d="M1065.14 361.015C1050.41 319.374 1042.71 241.905 1129.77 265.16C1216.83 288.415 1265.34 266.041 1278.72 251.947" stroke="#591893" stroke-width="7" stroke-linecap="round"/>
<path d="M1444 4.50068C1402.52 -0.864658 1268.08 37.0212 1333.49 111.887C1391.63 178.434 1344.3 226.481 1307.54 236.812" stroke="#591893" stroke-width="7" stroke-linecap="round"/>
<ellipse cx="660.5" cy="436.465" rx="225.5" ry="121.465" fill="#8F5BBD"/>
<ellipse cx="1008.5" cy="472.798" rx="241.5" ry="118.616" fill="#8F5BBD"/>
<ellipse cx="361" cy="514.474" rx="289" ry="122.534" fill="#8F5BBD"/>
<ellipse cx="1319.5" cy="492.033" rx="202.5" ry="100.093" fill="#8F5BBD"/>
<ellipse cx="86.5" cy="503.075" rx="292.5" ry="126.096" fill="#8F5BBD"/>
<rect x="-16" y="492.389" width="1496" height="201.611" fill="#8F5BBD"/>
</svg>
